<svg width="24" height="24" viewBox="0 0 24 24" fill="none" xmlns="http://www.w3.org/2000/svg">
<path d="M21.5013 5.38947H15.2932V3.21684C15.2932 1.44842 13.8143 0 12.0086 0C10.2029 0 8.72399 1.44842 8.72399 3.21684V5.38947H2.51591C2.22356 5.38947 2 5.60842 2 5.89474V23.4947C2 23.7811 2.22356 24 2.51591 24H21.4841C21.7764 24 22 23.7811 22 23.4947V5.89474C22 5.60842 21.7764 5.38947 21.4841 5.38947H21.5013ZM9.7558 3.23368C9.7558 2.02105 10.7704 1.02737 12.0086 1.02737C13.2468 1.02737 14.2614 2.02105 14.2614 3.23368V5.40632H9.7558V3.23368ZM14.7601 18.4084C14.3474 19.0821 13.7971 19.6042 12.9716 19.7558C12.4385 19.8568 11.8882 19.84 11.3551 19.7558C11.08 19.7221 10.8048 19.6884 10.5297 19.6547C10.3921 19.6547 10.2545 19.6211 10.1169 19.6211C9.99656 19.6211 9.85899 19.6884 9.7558 19.7221C9.73861 19.7221 9.72141 19.7221 9.70421 19.7221C9.70421 19.7221 9.66982 19.7221 9.65262 19.7221C9.36027 19.6042 9.10232 19.4189 8.91315 19.1663C8.91315 19.1495 8.87876 19.1326 8.87876 19.0989C8.86156 19.0316 8.91315 18.9305 8.91315 18.8632C8.91315 18.7621 8.94755 18.6779 8.94755 18.5768C8.94755 18.4253 8.94755 18.2737 8.94755 18.1053C8.94755 17.5663 9.30868 16.9095 9.87618 16.7747C10.2201 16.6905 10.65 16.8084 10.9596 16.96C11.4411 17.2126 11.6131 17.6842 11.4927 18.2063C11.4583 18.3916 11.3723 18.56 11.3035 18.7284C11.2691 18.8126 11.2863 18.8463 11.3551 18.8968C11.6991 19.1158 12.1462 19.0989 12.5417 18.9811C13.0748 18.8295 13.3844 18.4589 13.3156 17.9032C13.2468 17.4484 13.0748 17.0779 12.6621 16.8421C12.0086 16.4716 11.3551 16.1347 10.7016 15.7811C10.4093 15.6295 10.1341 15.4779 9.84179 15.3263C9.15391 14.9726 8.87876 14.1979 8.89596 13.4568C8.91316 12.9011 9.11952 12.3116 9.49785 11.8905C9.72141 11.6379 9.99656 11.4526 10.3061 11.3179C10.6328 11.1832 10.9768 11.1495 11.3379 11.0821H12.0086C12.2494 11.1158 12.5073 11.1495 12.7481 11.1832C12.8684 11.1832 12.9888 11.2168 13.1264 11.2337C13.2296 11.2337 13.35 11.2674 13.4531 11.2337C13.5219 11.2 13.5735 11.1832 13.6423 11.1495C13.6767 11.1495 13.6939 11.1158 13.7283 11.1158C13.7799 11.1158 13.8143 11.1158 13.8659 11.1326C13.9518 11.1663 14.0206 11.2 14.0894 11.2505C14.2958 11.3853 14.5021 11.52 14.6913 11.6716C14.6913 11.6716 14.6913 11.6716 14.7085 11.6884C14.7085 11.7221 14.6913 11.7558 14.6741 11.7726C14.6569 11.8063 14.6569 11.8568 14.6397 11.9074C14.6397 12.0253 14.6741 12.1263 14.7257 12.2274C14.8461 12.5642 14.9149 12.8842 14.8289 13.2379C14.7085 13.7432 14.485 13.9621 13.9518 14.0632C12.9888 14.2484 12.5417 13.3389 12.7653 12.6989C12.8169 12.5474 12.9028 12.3958 12.9716 12.2274C12.6105 12.0084 12.2322 11.84 11.785 11.9074C11.2691 11.9747 11.0112 12.5305 11.0972 12.9853C11.1488 13.3389 11.3035 13.6589 11.5959 13.8947C12.1462 14.3326 12.92 14.5347 13.5563 14.8379C14.2958 15.1916 14.9665 15.7137 15.1384 16.5389C15.276 17.1958 15.1384 17.7853 14.7773 18.3579L14.7601 18.4084Z" fill="black"/>
</svg>
